<?xml version="1.0" encoding="UTF-8" standalone="no"?>
<svg
   width="4.3263988in"
   height="0.86374307in"
   viewBox="0 0 1297.9197 259.12292"
   version="1.1"
   id="svg183"
   xmlns="http://www.w3.org/2000/svg"
   xmlns:svg="http://www.w3.org/2000/svg">
  <defs
     id="defs187" />
  <g
     id="g1084"
     transform="translate(-516.06476,-522.42529)">
    <path
       id="Selection"
       fill="none"
       stroke="#000000"
       stroke-width="1"
       d="m 1312,676 c 0,11.88 -1.89,25.16 -11.09,33.76 -12.19,11.25 -36.69,11.61 -48.82,0 -8.21,-7.76 -11.07,-18.8 -11.09,-29.76 0,0 0,-22 0,-22 0,-13.63 -0.85,-27.06 9.18,-37.96 13.07,-14.2 39.67,-14.8 52.49,0 7.75,8.94 9.33,20.61 9.33,31.96 0,0 -26,0 -26,0 -0.01,-4.57 0.22,-8.04 -2.65,-11.96 -4.92,-6.72 -11.53,-5.15 -15.04,1.96 -1.49,3.03 -1.3,6.7 -1.31,10 0,0 0,26 0,26 0.17,12.64 9.77,18.8 16.35,9.95 2.86,-3.85 2.64,-7.44 2.65,-11.95 0,0 26,0 26,0 z M 852,610 c 0,0 24,0 24,0 0,0 11,0 11,0 14.18,0.17 24.2,7.84 29.18,21 4.7,12.4 3.03,41.32 1.82,55 -0.36,4.09 -2.58,16.4 -8.07,16.26 -2.86,-0.08 -4.47,-2.61 -4.17,-5.28 0,0 3.27,-8.98 3.27,-8.98 1.6,-5.21 1.96,-9.61 1.97,-15 0,0 0,-19 0,-19 -0.02,-14.37 -4.05,-28.91 -19,-34.44 -5.86,-2.17 -17.45,-1.68 -24,-1.56 -2.14,0.04 -4.77,-0.04 -6.4,1.6 -1.92,1.92 -1.59,5.86 -1.6,8.4 0,0 0,59 0,59 0.02,11.36 3.62,11.11 14,11 4.1,-0.05 5.03,-0.21 9,-1.12 2.79,-0.64 5.53,-1.16 7.96,-2.77 10.81,-7.16 8.04,-22.8 8.04,-34.11 0,-8.51 1.52,-17.96 -4.39,-24.95 -7.47,-8.83 -17.49,-4.39 -22.48,-7.22 -2.65,-1.5 -3.82,-4.25 -5.13,-6.83 9.89,0 25.06,-1.42 32.9,5.39 4.55,3.95 5.94,9.97 7.21,15.61 1.26,5.57 0.89,11.32 0.89,17 0,11.85 1.68,30.63 -7.33,39.67 -5.02,5.04 -10.87,6.3 -17.67,6.33 0,0 -31,0 -31,0 0,0 0,-95 0,-95 z m 107,0 c 0,0 0,55 0,55 0,11.3 -1.39,21.78 4.53,32 4.81,8.32 14.7,14.16 24.47,12.7 5.19,-0.78 8.2,-3.15 11,-3.92 3.06,-0.84 7.37,0.21 7.39,4.06 0.02,3.32 -5.79,5.44 -8.39,6.26 -8.08,2.55 -20.09,2.6 -28,-0.58 -17.29,-6.94 -19.97,-26.16 -20,-42.52 0,0 0,-54 0,-54 0.02,-8.67 0.36,-8.97 9,-9 z m 3,0 c 0,0 9,0 9,0 -1.98,15.01 -1.03,47.28 -1,64 0.01,9.06 0.88,16.74 9,22.35 2.56,1.76 4.92,2.6 8,1.81 9.92,-2.55 12.99,-13.25 13,-22.16 0,0 0,-66 0,-66 0,0 8,0 8,0 0,0 0,69 0,69 -0.02,14.76 -5.57,26.9 -22,27.91 -18.06,1.1 -23.98,-13.63 -24,-28.91 0,0 0,-68 0,-68 z m 49,0 c 0,0 9,0 9,0 -2.2,16.7 -0.78,53.9 -1,73 -0.07,5.25 -1.9,21.77 -9.07,21.72 -2.8,-0.02 -4.63,-1.92 -4.29,-4.74 0,0 3.59,-8.98 3.59,-8.98 1.53,-4.92 1.76,-8.92 1.77,-14 0,0 0,-67 0,-67 z m 54,70 c 0,0 19,0 19,0 2.08,0.04 4.6,-0.07 6.14,1.6 2.38,2.57 1.43,5.64 -2.2,6.33 0,0 -17.94,0 -17.94,0 -2.18,0.07 -5.73,-0.15 -7.57,1.09 -2.44,1.65 -6.69,16.36 -7.92,19.98 -1.09,3.17 -4.13,10.59 -8.91,6.96 -2.06,-1.56 -1.14,-4.9 -0.56,-6.96 0,0 6.3,-19 6.3,-19 0,0 20.07,-60 20.07,-60 0.98,-3.2 5.29,-17.5 7.29,-19.01 1.66,-1.25 5.26,-0.98 7.3,-0.99 0,0 -3.95,16 -3.95,16 0,0 -12.47,38 -12.47,38 0,0 -4.58,16 -4.58,16 z m 96,-69 c 0,0 26,0 26,0 0,0 0,80 0,80 0,0 31,0 31,0 0,0 0,26 0,26 0,0 -57,0 -57,0 0,0 0,-106 0,-106 z m 196,0 c 0,0 18,0 18,0 0,0 24.67,75 24.67,75 0,0 9.33,31 9.33,31 0,0 -19,0 -19,0 0,0 -6.58,-1.02 -6.58,-1.02 0,0 -7.69,-13.96 -7.69,-13.96 0,0 -21.73,-1.02 -21.73,-1.02 0,0 -4,16 -4,16 0,0 -27,0 -27,0 0,0 7.98,-26 7.98,-26 0,0 26.02,-80 26.02,-80 z m 67,0 c 14.95,0 39.85,-2.53 51.99,6.05 7.86,5.57 12.52,17.44 11.83,26.95 0,0 -1.35,11 -1.35,11 0.56,4.4 4.07,5.9 6.49,14 3.79,12.69 1.46,30.5 -9.05,39.48 -11.13,9.51 -24.33,8.52 -37.91,8.52 0,0 -22,0 -22,0 0,0 0,-106 0,-106 z m -335,1 c 0,0 3,0 3,0 0,0 10.07,30 10.07,30 0,0 16.21,49 16.21,49 0,0 6.24,20 6.24,20 0.44,3.13 -0.41,6.66 -4.48,5.34 -4.6,-1.48 -8,-15.73 -9.46,-20.34 0,0 -13.36,-40 -13.36,-40 -2.47,-6.87 -3.63,-12.52 -7.22,-19 0,0 -9.02,28 -9.02,28 0,0 -4.68,11.01 -4.68,11.01 0,0 -7.3,0.99 -7.3,0.99 0.2,-8.03 3.68,-15.53 6.37,-23 0,0 13.63,-42 13.63,-42 z m 218,36 c -0.08,-9.28 -2.46,-18.14 -9.09,-24.96 -12.27,-12.61 -33.4,-11.42 -44.58,1.96 -5.5,6.59 -7.29,13.6 -7.33,22 -0.05,10.87 -1.26,36.92 1.75,46 5.47,16.53 23.05,24.53 39.25,18.89 3.35,-1.16 6.06,-2.98 9,-4.89 0,0 -4,-5 -4,-5 -12.69,10.27 -30.34,7.11 -37.6,-8 -2.19,-4.57 -3.34,-12.9 -3.4,-18 -0.15,-13.56 -2.03,-36.15 6.53,-46.99 8.88,-11.24 26.29,-12.23 36.29,-1.91 5.89,6.09 7.16,12.81 7.18,20.9 0,0 6,0 6,0 z m -136,-32 c 0,0 -5,0 -5,0 0,0 0,86 0,86 0,0 47,0 47,0 0,0 0,-6 0,-6 0,0 -42,0 -42,0 0,0 0,-80 0,-80 z m 11,0 c 0,0 -6,0 -6,0 0,0 0,75 0,75 0,0 6,0 6,0 0,0 0,-75 0,-75 z m 185,0 c 0,0 -5.3,0.99 -5.3,0.99 0,0 -3.03,6.01 -3.03,6.01 0,0 -5,15 -5,15 0,0 -24.67,74 -24.67,74 0,0 5.3,-0.99 5.3,-0.99 0,0 10.21,-23.41 10.21,-23.41 0,0 8.49,-1.6 8.49,-1.6 0,0 19,0 19,0 0,0 -2.51,-4.98 -2.51,-4.98 0,0 -7.49,-1.02 -7.49,-1.02 0,0 -15,0 -15,0 0,0 7,-24 7,-24 0,0 13,-40 13,-40 z m 115.19,36 c 0.29,-5.89 1.31,-7.81 0,-14 -1.96,-11.98 -9.86,-20.32 -22.19,-21.94 0,0 -13,0 -13,0 0,0 -19,0 -19,0 0,0 0,85.94 0,85.94 11.28,0 35.26,1.92 43.96,-4.64 10.11,-7.62 10.03,-27.08 -2.96,-33.92 -6.47,-3.41 -18.53,-2.44 -26,-2.44 8.79,11.86 16.79,1.41 25.79,9.42 7.93,7.06 5.53,19.54 -3.79,24.01 -5.4,2.59 -24.09,1.57 -31,1.57 0,0 0,-40 0,-40 16.08,0 39.53,-3.79 47.65,14 2.26,4.97 2.99,11.66 1.83,17 -1.59,7.37 -6.63,10.22 0.52,14 6.77,-12.87 8.91,-25 0.53,-37.96 -4.57,-7.08 -10.72,-8 -12.66,-11.3 -0.53,-1.73 0.03,-4.79 0,-6.74 0.16,-2.21 0.12,-4.85 0,-7 -3.61,-13.23 -18.31,-12 -28.87,-12 1.77,2.39 3.06,4.3 6,5.4 4.16,1.56 8.67,-1.06 13.82,3.83 5.92,5.53 4.08,13.34 0,15.17 -1.67,0.72 -4.99,0.6 -6.82,0.6 0,0 -22,0 -22,0 0,0 0,-29 0,-29 11.42,0 29.35,-2.69 37.67,6.18 3.14,3.34 4.67,7.32 5.16,11.82 0.63,5.78 -1.57,9.85 5.36,12 z M 1372,619 c 0,0 -8,21 -8,21 0,0 -12,36 -12,36 0,0 5.92,-1.57 5.92,-1.57 0,0 4.08,-10.43 4.08,-10.43 0,0 8,-26 8,-26 0,0 3,0 3,0 0,0 6.33,21 6.33,21 0,0 12,36 12,36 0,0 6.37,16.01 6.37,16.01 0,0 5.3,0.99 5.3,0.99 0,0 -20.33,-62 -20.33,-62 0,0 -10.67,-31 -10.67,-31 z m -75,29 c -0.95,-5.19 -1.48,-10.57 -4.65,-14.99 -6.37,-8.88 -20.68,-11.54 -28.35,-2.87 6.75,3.93 6.64,-0.19 13,0 9.48,0.63 13.32,9.72 14,17.86 0,0 6,0 6,0 z M 863,625 c 7.51,2.21 8.91,6.8 9,14 0,0 0,46 0,46 -0.02,8.67 -0.36,8.97 -9,9 0,0 0,-69 0,-69 z m 577,6 c 0,0 -1,15 -1,15 0,0 6,0 6,0 0,-8.09 0.75,-8.74 -5,-15 z m -179,2 c -7.17,9.28 -5.06,32.06 -5,44 0.03,6.54 1.09,13.73 5.39,18.96 7.37,8.96 21.44,9.54 29.28,0.94 4.79,-5.25 5.13,-10.32 6.33,-16.9 0,0 -6,0 -6,0 -0.4,4.74 -1.23,9.11 -4.53,12.79 -6.63,7.37 -17.32,5.67 -22.06,-2.8 -2.25,-4.04 -2.39,-7.52 -2.41,-11.99 0,0 0,-27 0,-27 0.01,-7.33 3.11,-11.98 -1,-18 z m 188,13 c 2.47,0 9.63,0.43 11.39,-1.02 2.05,-1.7 0.9,-4.77 -0.82,-6.24 -2.52,-2.16 -7.4,-1.74 -10.57,-1.74 0,0 0,9 0,9 z m -360,2 c 0,0 3,0 3,0 0,0 8.67,26 8.67,26 0,0 9.16,27 9.16,27 1.29,3.89 7.78,17.85 -1.78,15.67 -6.39,-1.46 -5.02,-12.27 -9.48,-16.07 -4.65,-3.97 -24.29,0.83 -28.92,-3.34 -1.87,-1.68 -2.2,-3.95 -2.65,-6.26 0,0 29,0 29,0 0,0 -8.81,-32 -8.81,-32 0,0 1.81,-11 1.81,-11 z m 283,3 c 0,0 -2.63,8 -2.63,8 0,0 8.63,32 8.63,32 0,0 -27,0 -27,0 0,0 4.18,4.4 4.18,4.4 0,0 25.82,0.6 25.82,0.6 0.52,3.34 2.8,13.08 5.51,14.98 1.56,1.1 3.68,0.96 5.49,1.02 0,0 -20,-61 -20,-61 z m 68,14 c 0,0 -1,26 -1,26 0,0 6,0 6,0 0,0 -0.6,-20 -0.6,-20 0,0 -4.4,-6 -4.4,-6 z m -74,3 c 0,0 -3,8 -3,8 0,0 6,0 6,0 0,0 -3,-8 -3,-8 z m 83,23 c 3.96,0 11.56,0.49 14.92,-1.31 6.31,-3.43 6.4,-13.07 0,-16.52 -3.12,-1.69 -11.12,-1.17 -14.92,-1.17 0,0 0,19 0,19 z m -142,-11 c 0,0 -6,0 -6,0 -0.14,15.74 -7.35,15.65 0,22 3.93,-9.14 5.91,-11.61 6,-22 z m 40,14 c 0,0 -7,18 -7,18 1.42,-0.05 3.28,0.06 4.58,-0.57 2.79,-1.35 5.21,-9.53 4.73,-12.43 -0.32,-1.92 -1.36,-3.37 -2.31,-5 z m -285,1 c 11.63,3.63 2.02,19.87 0.57,20.82 -5.79,3.8 -6.72,-2.74 -5.48,-6.82 0,0 1.74,-5 1.74,-5 0,0 3.17,-9 3.17,-9 z m 417,10.89 c -3.93,-7.31 -6.79,-1.59 -15,0 0,0 -36,0 -36,0 0,0 0,5.88 0,5.88 0,0 37,0 37,0 0,0 14,-5.88 14,-5.88 z m -579,-3.04 c 7.7,-1.47 8.71,5.12 2.94,8.79 -6.65,4.23 -18.15,5.35 -25.94,5.36 -3.57,0.01 -20.6,0.42 -22.69,-0.6 -2.55,-1.25 -2.95,-5.6 -0.71,-7.38 1.58,-1.25 5.42,-1.02 7.4,-1.02 0,0 28,-0.52 28,-0.52 3.96,-0.86 7.36,-2.96 11,-4.63 z m 313,3.15 c 0,0 -47,0 -47,0 0,0 0,6 0,6 0,0 47,0 47,0 0,0 0,-6 0,-6 z"
       style="fill:#000000;fill-opacity:1" />
    <path
       id="Selection-9"
       fill="none"
       stroke="#000000"
       stroke-width="0.0962706"
       d="m 592.74404,523.30437 c 0,0 5.77622,0 5.77622,0 0,0 10.30091,0 10.30091,0 0,0 0.96271,0.0741 0.96271,0.0741 1.52588,0.10398 3.54081,0.11455 4.70858,1.26981 1.33526,1.32275 0.48519,3.2058 -0.37642,4.51507 -0.90398,1.37281 -3.82194,5.26213 -4.90978,6.35384 -1.05417,1.05705 -2.18823,1.8869 -3.75455,1.82527 -0.91263,-0.0356 -2.01397,-0.46979 -2.88811,-0.72588 -1.51625,-0.4438 -2.85152,-0.78459 -4.42843,-0.97617 0,0 -2.69557,-0.21949 -2.69557,-0.21949 0,0 -1.25151,-0.0924 -1.25151,-0.0924 0,0 -1.44405,0 -1.44405,0 0,0 -1.63658,-0.10012 -1.63658,-0.10012 0,0 -8.27925,0 -8.27925,0 -1.37571,-0.0164 -2.3076,-0.46401 -2.51554,-1.9254 -0.0366,-0.25608 -0.0722,-0.41012 -0.053,-0.67389 0.23201,-3.08066 1.72611,-4.61713 4.1088,-6.38947 1.48739,-1.10614 3.01231,-1.97257 4.81351,-2.45295 0.73166,-0.19447 1.55572,-0.31095 2.31049,-0.38316 0,0 1.25152,-0.0992 1.25152,-0.0992 z m 119.08629,208.41162 c -0.0857,0.7432 -0.70085,1.21975 -1.25151,1.67413 0,0 -3.56199,2.59353 -3.56199,2.59353 -5.05996,3.3733 -10.23545,6.53097 -15.40324,9.73196 0,0 -18.00254,10.85735 -18.00254,10.85735 0,0 -28.11091,16.8473 -28.11091,16.8473 0,0 -6.45011,3.81712 -6.45011,3.81712 -2.12564,1.21301 -3.77957,2.09292 -6.25757,2.34129 0,0 -0.67389,0.0722 -0.67389,0.0722 0,0 -0.67389,-0.0722 -0.67389,-0.0722 -2.61565,-0.2532 -4.8472,-1.21109 -7.02773,-2.66475 -1.39688,-0.93191 -2.55886,-2.03324 -3.63131,-3.32038 -1.20049,-1.44115 -2.25658,-3.123 -3.24431,-4.71724 -2.04286,-3.29726 -3.83348,-6.73795 -5.56731,-10.20465 -5.5856,-11.1712 -10.01499,-23.56599 -13.27567,-35.61999 -3.39449,-12.54978 -5.83782,-25.77539 -7.22122,-38.70064 0,0 -0.64214,-5.87248 -0.64214,-5.87248 0,0 -0.50636,-6.54638 -0.50636,-6.54638 0,0 -0.28015,-4.71725 -0.28015,-4.71725 0,0 -0.0963,-1.2515 -0.0963,-1.2515 0,0 -0.0963,-2.88812 -0.0963,-2.88812 0,0 -0.0963,-1.34778 -0.0963,-1.34778 0,0 0,-1.54031 0,-1.54031 0,0 -0.0963,-1.54032 -0.0963,-1.54032 0,0 0,-16.07714 0,-16.07714 0,0 0.0963,-1.44406 0.0963,-1.44406 0,0 0.0963,-3.17692 0.0963,-3.17692 0,0 0.0963,-1.34777 0.0963,-1.34777 0,0 0.0963,-2.40676 0.0963,-2.40676 0,0 0.0963,-1.34778 0.0963,-1.34778 0,0 0.0876,-1.3478 0.0876,-1.3478 0,0 0.1136,-2.31047 0.1136,-2.31047 0,0 0.1752,-1.92542 0.1752,-1.92542 0.26476,-3.86525 0.68834,-7.70258 1.14948,-11.55243 1.43345,-11.9895 3.06235,-21.19293 5.99571,-32.92442 0,0 1.56824,-6.16129 1.56824,-6.16129 1.3834,-4.97236 2.97667,-9.86867 4.70665,-14.72935 1.18509,-3.33 2.39713,-6.65421 3.76513,-9.91584 0,0 4.02409,-8.7606 4.02409,-8.7606 0,0 2.55406,-5.39113 2.55406,-5.39113 0,0 2.49725,-4.71724 2.49725,-4.71724 0.81349,-1.50085 1.62601,-3.03732 2.75333,-4.33217 1.61542,-1.85706 4.3543,-3.29339 6.71101,-3.96055 0.75956,-0.21468 1.91383,-0.45825 2.69556,-0.46787 0,0 1.2515,0 1.2515,0 1.53744,0.0183 3.3531,0.64212 4.71725,1.32372 2.6821,1.34104 4.79619,3.11241 6.71486,5.41519 2.09677,2.51651 4.33214,6.02459 6.03133,8.85686 2.41156,4.01832 4.67776,8.15891 6.63398,12.41886 0,0 3.29919,7.31655 3.29919,7.31655 1.74827,4.16754 3.30014,8.43037 4.75767,12.70768 4.65947,13.67903 8.05588,29.47024 9.94279,43.80295 0.64501,4.90208 1.18316,9.80128 1.52203,14.72936 0,0 0.47268,7.31653 0.47268,7.31653 0,0 0.0963,1.25153 0.0963,1.25153 0,0 0,1.25151 0,1.25151 0,0 0.0963,1.44404 0.0963,1.44404 0,0 0.19254,7.12401 0.19254,7.12401 0,0 0.0963,1.63658 0.0963,1.63658 0,0 0,3.65828 0,3.65828 0,0 -0.0963,1.6366 -0.0963,1.6366 0,0 -0.28881,9.81956 -0.28881,9.81956 0,0 -0.0924,0.96271 -0.0924,0.96271 0,0 0,0.96269 0,0.96269 0,0 -0.10012,1.54033 -0.10012,1.54033 0,0 -0.18387,2.50303 -0.18387,2.50303 0,0 -0.47366,6.16129 -0.47366,6.16129 -0.93285,9.63087 -2.27583,19.19243 -4.17523,28.68853 0,0 -1.30928,6.25757 -1.30928,6.25757 -0.19254,0.96366 -0.55548,3.01999 -0.49194,3.94708 0.0548,0.81348 0.21179,1.68282 0.59976,2.40675 0.86066,1.60193 2.65899,2.29027 4.39763,2.31049 0,0 0.48136,0 0.48136,0 0,0 1.05895,0.0799 1.05895,0.0799 0.48618,0.0491 1.16874,0.0434 0.87993,0.78652 -0.12805,0.33021 -0.53238,0.71047 -0.78365,0.96271 -0.57955,0.58244 -1.18894,1.12155 -1.82913,1.63659 0,0 -7.02773,5.20631 -7.02773,5.20631 -1.13598,1.04355 -1.95332,1.92925 -2.74851,3.26546 -1.34395,2.25949 -2.58004,6.10355 -3.58607,8.66433 -0.55164,1.40363 -1.23515,3.26934 -1.5952,4.71724 -0.1367,0.54875 -0.37064,1.7733 -0.33214,2.31049 0.14057,1.96585 1.2005,3.26357 3.25587,3.2732 0,0 0.48134,0 0.48134,0 1.44117,-0.0173 3.5726,-0.87607 4.90979,-1.44406 0,0 7.79788,-3.53216 7.79788,-3.53216 8.63641,-3.95574 17.25453,-7.99042 25.99298,-11.71898 0,0 8.08669,-3.29917 8.08669,-3.29917 1.30544,-0.46596 2.83325,-1.11289 4.23589,-0.99255 z M 575.22285,524.79752 c 0.71144,-0.14729 1.48546,-0.0713 1.98125,0.52467 0.61131,0.73359 0.30421,1.88113 -0.63347,2.14972 -0.6373,0.18291 -1.3651,-0.026 -1.79157,-0.53141 -0.61036,-0.72492 -0.45729,-1.75598 0.44379,-2.14298 z m -17.52117,0.55548 c 2.99399,-0.3562 4.49389,2.83421 5.60773,5.06189 0,0 1.05897,2.21422 1.05897,2.21422 0,0 2.49821,5.29486 2.49821,5.29486 0.56607,1.41037 0.81542,2.23925 0.95982,3.75455 0.026,0.27147 0.0703,0.38218 0.0491,0.67388 -0.12515,1.67413 -0.38218,2.66572 -0.96269,4.23589 -0.48906,1.32276 -1.40651,3.46189 -2.28834,4.52375 -0.54201,0.65174 -1.239,1.22552 -2.10929,1.33141 -1.51241,0.18292 -2.6869,-0.80193 -3.58124,-1.90808 -1.5673,-1.93888 -3.22218,-4.99643 -4.49102,-7.22026 -1.12539,-1.97162 -2.02264,-3.49075 -3.67272,-5.10137 -1.21877,-1.18894 -2.73793,-1.84356 -2.69459,-3.7555 0.0318,-1.39303 0.91552,-2.78799 1.75211,-3.8508 1.50856,-1.91482 4.26286,-4.25419 6.62244,-5.00316 0.52756,-0.16751 0.72588,-0.17137 1.25151,-0.25128 z m -15.78833,19.26752 c 1.08304,-0.18868 1.53936,0.34658 2.10927,1.19761 0,0 2.45587,4.33217 2.45587,4.33217 0,0 4.45443,7.22026 4.45443,7.22026 0,0 2.57329,3.94708 2.57329,3.94708 1.72517,2.75621 3.26549,4.72495 3.50425,8.0867 0.0288,0.41301 -0.16944,1.84551 -0.24743,2.31049 0,0 -0.37353,1.63659 -0.37353,1.63659 -0.58532,2.34322 -1.62504,6.6725 -4.84913,6.03519 -1.42095,-0.28112 -2.96512,-1.88402 -3.85851,-2.95453 0,0 -2.98822,-3.85082 -2.98822,-3.85082 -0.94538,-1.28328 -1.88114,-2.58197 -2.96514,-3.75453 -1.16101,-1.25633 -2.6301,-2.52517 -4.43612,-2.59545 -0.54874,-0.0212 -1.12444,0.0972 -1.63659,0.29073 -0.42649,0.16174 -0.90014,0.40915 -1.25152,0.69989 -2.39713,1.98027 -1.31986,5.48162 -0.16751,7.86239 1.08785,2.2479 3.00845,4.77885 4.57669,6.73891 0,0 5.61063,6.83519 5.61063,6.83519 1.41613,1.69629 3.63708,4.22434 4.41496,6.25756 0.4775,1.24767 0.59879,2.43083 0.58338,3.75456 -0.0202,1.66643 -0.65173,5.4691 -1.3834,6.93145 -0.5651,1.13021 -1.52299,1.99375 -2.85248,1.91675 -1.75212,-0.10207 -3.63131,-1.79352 -4.81351,-2.97572 0,0 -3.64961,-3.75453 -3.64961,-3.75453 -1.31601,-1.4123 -2.80916,-3.05467 -4.53336,-3.96828 -1.69436,-0.89723 -3.44841,-0.9964 -4.90979,0.41012 -0.41107,0.39567 -0.68833,0.7278 -0.9319,1.24766 -0.42071,0.89917 -0.42647,1.4479 -0.41588,2.40676 0.0318,2.68016 2.33455,5.78295 4.03854,7.70162 3.29147,3.70641 7.09414,6.89681 10.59453,10.39719 2.47223,2.47221 4.57669,4.43806 4.62098,8.18297 0,0 0,2.31049 0,2.31049 -0.002,0.73934 -0.17041,2.23731 -0.29652,2.98437 -0.0992,0.59014 -0.24453,1.17835 -0.47557,1.73287 -0.8491,2.04092 -2.5762,2.25369 -4.42651,1.52107 -2.20169,-0.87221 -5.78295,-4.02411 -7.70161,-5.62123 -0.80675,-0.67099 -1.6289,-1.34778 -2.50304,-1.93117 -1.00506,-0.67005 -2.43081,-1.42192 -3.65825,-1.4739 -2.39137,-0.10109 -4.2388,2.09869 -4.09053,4.42458 0.21083,3.29533 2.38365,5.57404 4.66814,7.70355 3.05755,2.85056 8.14061,6.27007 11.55244,8.95119 1.96102,1.5413 4.15212,3.03734 5.21206,5.39114 1.03009,2.28931 1.40169,6.19211 1.00314,8.66433 -0.30615,1.90037 -1.12349,3.22312 -3.23084,3.17595 -1.40649,-0.0328 -3.03348,-0.86837 -4.23589,-1.55379 0,0 -6.73892,-4.22146 -6.73892,-4.22146 -1.22455,-0.73453 -3.35598,-1.82144 -4.8135,-1.71553 -2.32686,0.16943 -3.8046,2.03997 -3.75359,4.31483 0.078,3.42241 3.35695,6.24217 5.96779,7.99042 3.6217,2.42601 7.47541,4.55744 11.26363,6.71196 2.32011,1.31987 5.20726,2.89004 6.59932,5.22557 0.39472,0.6633 0.66813,1.38724 0.90977,2.11794 0,0 0.48135,1.82913 0.48135,1.82913 0,0 0.26473,1.44405 0.26473,1.44405 0.35235,2.11314 0.86162,5.59812 -1.80506,6.42893 -0.39471,0.12323 -0.65561,0.11649 -1.05897,0.11745 0,0 -0.38509,0 -0.38509,0 -1.27076,-0.0154 -2.87943,-0.67004 -4.04334,-1.16969 0,0 -6.25757,-2.99977 -6.25757,-2.99977 -1.57499,-0.72107 -3.24432,-1.43443 -5.00605,-1.41421 -2.20844,0.0259 -3.6785,1.72131 -3.83349,3.8508 -0.0443,0.61998 0.22046,1.63178 0.44573,2.21422 0.97234,2.50881 3.25587,4.14444 5.5057,5.43156 2.88522,1.65104 9.47589,4.36875 12.80395,5.8051 2.56367,1.10615 5.38823,2.19497 7.15576,4.4554 0.44573,0.56991 0.87895,1.35547 1.1639,2.02166 0,0 0.66524,1.73288 0.66524,1.73288 0,0 0.42166,1.34778 0.42166,1.34778 0.60554,2.11024 1.45176,5.76561 -1.31986,6.72928 -0.40146,0.13959 -0.8289,0.19639 -1.25152,0.20216 0,0 -0.48135,0 -0.48135,0 -1.2313,-0.0145 -3.14611,-0.56702 -4.33216,-0.96269 0,0 -5.67994,-1.95717 -5.67994,-1.95717 -1.10229,-0.36775 -2.80243,-0.91746 -3.94709,-0.93094 0,0 -0.86644,0 -0.86644,0 -2.82071,0.0337 -4.44287,2.7023 -3.65441,5.29486 0.65078,2.14202 2.42217,3.7632 4.32831,4.82699 2.07174,1.15524 4.84625,2.0727 7.124,2.78029 0,0 8.37552,2.59544 8.37552,2.59544 2.50783,0.77882 5.73192,1.61253 7.57743,3.5726 1.26209,1.34008 2.14297,3.2029 2.81976,4.90111 0.51215,1.28329 0.97809,2.64742 0.96269,4.04334 -0.0232,1.98606 -1.22936,2.87368 -3.08064,3.09511 -0.39374,0.0471 -0.54104,0.0943 -0.96271,0.078 -2.82073,-0.10975 -6.25275,-1.15236 -9.04939,-1.76945 -1.08786,-0.24069 -2.86308,-0.61999 -3.94709,-0.63346 -1.00987,-0.0116 -2.08522,0.11071 -2.98438,0.61132 -1.85802,1.03298 -2.66668,3.28184 -1.93695,5.26117 0.50156,1.36318 1.69434,2.42312 2.89966,3.17113 2.36632,1.46812 5.65779,2.2354 8.37551,2.79761 0,0 9.53075,1.90616 9.53075,1.90616 2.14394,0.42839 4.93963,0.87125 6.83519,1.93117 2.07174,1.1591 3.41181,3.23373 4.45249,5.30835 0.46692,0.9319 0.87511,1.77619 1.14274,2.79185 0.40722,1.54609 0.39085,3.25489 -1.1668,4.15117 -0.3562,0.20505 -0.75572,0.3533 -1.15525,0.4467 -0.63634,0.15017 -1.65008,0.22334 -2.31048,0.21564 0,0 -2.11794,-0.17619 -2.11794,-0.17619 -3.33288,-0.33309 -7.11534,-1.11384 -10.39719,-1.07534 0,0 -4.62098,0.47269 -4.62098,0.47269 -2.18918,-0.12418 -3.50327,-1.33334 -4.81351,-2.9757 -1.44598,-1.81277 -3.79497,-5.61833 -4.9791,-7.70162 -0.99639,-1.75213 -1.92155,-3.54661 -2.73599,-5.39114 0,0 -1.74442,-4.13963 -1.74442,-4.13963 0,0 -2.92951,-5.29486 -2.92951,-5.29486 0,0 -1.34778,-2.79184 -1.34778,-2.79184 -1.85994,-4.06067 -4.27151,-10.7091 -5.61159,-15.01816 0,0 -1.41806,-5.00605 -1.41806,-5.00605 0,0 -3.21543,-11.26362 -3.21543,-11.26362 -1.15621,-4.62867 -2.14298,-9.34975 -2.9324,-14.05544 0,0 -1.12635,-7.70162 -1.12635,-7.70162 0,0 -1.59424,-11.07109 -1.59424,-11.07109 0,0 -0.69891,-8.27924 -0.69891,-8.27924 0,0 -0.18389,-2.79183 -0.18389,-2.79183 0,0 -0.0924,-1.05898 -0.0924,-1.05898 0,0 0,-1.34778 0,-1.34778 0,0 -0.10012,-1.44405 -0.10012,-1.44405 0,0 0,-4.04336 0,-4.04336 0,0 -0.0924,-1.15523 -0.0924,-1.15523 0,0 0,-1.25152 0,-1.25152 0,0 -0.10014,-0.96271 -0.10014,-0.96271 0,0 0,-0.86643 0,-0.86643 0,0 -0.19252,-2.98437 -0.19252,-2.98437 0,0 -0.0963,-1.6366 -0.0963,-1.6366 0,0 0,-5.39114 0,-5.39114 0,0 0.0963,-1.44404 0.0963,-1.44404 0,0 0,-1.25152 0,-1.25152 0,0 0.0963,-1.54032 0.0963,-1.54032 0,0 0.19255,-5.39114 0.19255,-5.39114 0,0 0.0876,-0.9627 0.0876,-0.9627 0,0 0.21758,-3.27319 0.21758,-3.27319 0,0 0.5699,-5.96875 0.5699,-5.96875 0,0 0.0876,-0.9627 0.0876,-0.9627 0,0 0.0963,-2.31049 0.0963,-2.31049 0,0 0.0924,-1.05898 0.0924,-1.05898 0.12322,-2.83804 0.47268,-5.65395 0.84332,-8.47178 0.56799,-4.31483 1.25922,-8.64218 2.16512,-12.90021 0,0 0.99833,-4.13963 0.99833,-4.13963 0,0 1.43153,-7.70161 1.43153,-7.70161 0,0 1.45658,-6.06503 1.45658,-6.06503 1.02046,-3.66983 2.01685,-7.52256 3.39159,-11.07107 0,0 1.39111,-3.2732 1.39111,-3.2732 0,0 1.70302,-3.56199 1.70302,-3.56199 0,0 1.54705,-5.77622 1.54705,-5.77622 0.83468,-2.68401 1.99762,-5.26117 3.19618,-7.79789 1.08978,-2.30761 2.18148,-4.64987 3.50231,-6.83519 0.60747,-1.00505 1.49027,-2.24502 2.63781,-2.64166 z m 48.23139,0.3514 c 0,0 3.85082,0 3.85082,0 1.55476,-0.0202 3.60147,-0.0847 5.10232,0.19735 1.59712,0.29941 2.4443,0.96174 2.40579,2.67054 -0.0289,1.24958 -0.71047,2.81399 -1.22167,3.94708 -0.77208,1.71264 -1.66066,3.55815 -2.72637,5.10233 -0.7047,1.02046 -1.72999,2.06403 -3.07872,1.97257 -0.88376,-0.0607 -2.31048,-0.64501 -3.2732,-0.89916 -1.17642,-0.30999 -2.63395,-0.41301 -3.85081,-0.39952 0,0 -1.54031,0.0962 -1.54031,0.0962 0,0 -2.50303,0.18389 -2.50303,0.18389 0,0 -2.11795,0.12129 -2.11795,0.12129 -2.18823,0.20795 -3.67078,0.57956 -5.77621,1.00411 0,0 -4.13963,0.81637 -4.13963,0.81637 -0.66137,0.10878 -1.57016,0.27341 -2.21421,0.0953 -1.44501,-0.3976 -1.45849,-1.9591 -1.44406,-3.18366 0.0212,-1.78966 0.8857,-4.13288 2.05057,-5.4874 0.74608,-0.86739 1.78869,-1.49701 2.95549,-1.13407 1.81566,0.56511 3.58029,3.06332 5.77621,3.1519 0.4544,0.0183 0.83179,-0.0404 1.25152,-0.22143 1.47775,-0.63732 2.297,-2.17475 2.79184,-3.62554 0.32058,-0.94249 0.68833,-2.24406 1.36511,-2.98053 1.00025,-1.08689 3.28088,-1.3497 4.69991,-1.35163 0.54779,-0.002 1.09266,0.0221 1.63659,-0.076 z m 46.78734,18.8757 c -0.58243,0.0857 -1.06185,0.14057 -1.63659,0.30326 -4.23203,1.19375 -7.3175,4.61808 -9.5712,8.23785 -4.36681,7.0104 -7.19234,16.05017 -9.09368,24.06756 -1.884,7.94325 -3.26644,16.04632 -4.13577,24.16383 0,0 -0.70565,7.31654 -0.70565,7.31654 0,0 -0.46499,5.48741 -0.46499,5.48741 0,0 0,0.86642 0,0.86642 0,0 -0.0963,1.44406 -0.0963,1.44406 0,0 -0.0963,1.44405 -0.0963,1.44405 0,0 -0.0963,2.50304 -0.0963,2.50304 0,0 -0.0963,1.54031 -0.0963,1.54031 0,0 0,1.34779 0,1.34779 0,0 -0.0963,1.54031 -0.0963,1.54031 0,0 0,2.21423 0,2.21423 0,0 -0.0963,1.63659 -0.0963,1.63659 0,0 0,9.14567 0,9.14567 0,0 0.0963,1.54034 0.0963,1.54034 0,0 0,2.11794 0,2.11794 0,0 0.0963,1.44405 0.0963,1.44405 0,0 0,1.44406 0,1.44406 0,0 0.0924,1.15523 0.0924,1.15523 0,0 0,1.15525 0,1.15525 0,0 0.10012,1.34778 0.10012,1.34778 0,0 0.0963,2.21422 0.0963,2.21422 0,0 0.18388,2.50303 0.18388,2.50303 0,0 0.66619,7.99042 0.66619,7.99042 0.80193,8.28214 1.7319,14.83524 3.36657,23.0086 1.10036,5.49992 2.69652,11.76518 4.5738,17.03982 1.52877,4.29751 3.53985,9.10235 6.06696,12.90022 2.14103,3.21639 4.86067,6.26238 8.63255,7.50908 0.72202,0.23875 1.74537,0.47172 2.50302,0.48135 1.61349,0.0183 2.4674,0.0154 4.04335,-0.48424 3.61302,-1.14466 6.45974,-4.24841 8.50355,-7.31366 2.35188,-3.52637 4.17427,-7.6814 5.65299,-11.64869 1.52877,-4.10111 2.93817,-8.62774 3.88643,-12.9002 0,0 1.94081,-9.04942 1.94081,-9.04942 1.49893,-8.31101 2.55116,-16.71058 3.12974,-25.12653 0,0 0.17522,-1.92539 0.17522,-1.92539 0,0 0.11359,-2.11797 0.11359,-2.11797 0,0 0.0876,-1.05897 0.0876,-1.05897 0,0 0.0963,-1.73285 0.0963,-1.73285 0,0 0.10014,-1.6366 0.10014,-1.6366 0,0 0,-1.25151 0,-1.25151 0,0 0.0924,-1.05897 0.0924,-1.05897 0,0 0,-1.73288 0,-1.73288 0,0 0.0963,-1.63659 0.0963,-1.63659 0,0 0,-16.17341 0,-16.17341 0,0 -0.0963,-1.44404 -0.0963,-1.44404 -0.006,-3.6371 -0.32154,-7.25494 -0.56895,-10.87855 -0.55355,-8.08669 -1.43538,-16.16473 -2.82457,-24.16382 0,0 -1.40072,-7.22028 -1.40072,-7.22028 -1.19183,-5.95913 -3.01712,-12.42079 -5.17742,-18.0988 -1.32084,-3.47247 -3.44167,-8.0684 -5.58367,-11.07108 -0.78846,-1.10615 -1.60579,-2.194 -2.54731,-3.17692 -2.62434,-2.73985 -6.14782,-4.56801 -10.00827,-4.20894 z m -47.26869,2.90159 c 1.19761,-0.14537 2.42506,-0.0568 2.79859,1.30735 0.0866,0.31576 0.0876,0.5449 0.0895,0.86643 0.006,1.44983 -0.42263,2.8573 -0.826,4.23589 0,0 -1.96103,5.87249 -1.96103,5.87249 -0.44669,1.19952 -1.28906,3.16826 -2.22288,4.02603 -1.36703,1.25438 -2.62816,-0.36101 -3.84694,-1.01086 -1.25441,-0.66907 -2.45586,-0.81732 -3.85082,-0.80095 -1.23129,0.0145 -3.35503,0.47364 -4.62098,0.71143 -3.99425,0.749 -4.67391,0.85874 -8.56804,2.20941 0,0 -4.13963,1.37858 -4.13963,1.37858 -0.67774,0.21084 -1.81085,0.53142 -2.50303,0.36679 -1.47005,-0.35041 -1.65103,-2.46162 -1.63659,-3.70351 0.009,-0.74224 0.22046,-1.97548 0.42647,-2.69556 0.20217,-0.70856 0.45248,-1.27944 0.80482,-1.92542 0.21661,-0.39759 0.47366,-0.7355 0.79424,-1.05512 1.0869,-1.08303 2.28738,-0.92996 3.55814,-0.26186 1.70496,0.89725 3.86141,2.65418 5.87249,1.57499 1.61156,-0.86451 2.16993,-2.73022 2.50302,-4.39763 0.23201,-1.15909 0.42649,-2.42311 1.34972,-3.25585 1.14081,-1.02817 3.42144,-1.34971 4.90786,-1.63467 0,0 4.23589,-0.70084 4.23589,-0.70084 0,0 6.83518,-1.10712 6.83518,-1.10712 z m -5.10232,21.86297 c 1.85608,-0.27533 1.55379,2.34226 1.54033,3.51195 -0.0192,1.64333 -1.03491,6.14685 -1.40555,7.99043 0,0 -1.26306,5.4874 -1.26306,5.4874 -0.63057,2.12372 -1.46716,4.20315 -1.47102,6.4501 0,0 0,2.88811 0,2.88811 0,0 -0.0963,1.15525 -0.0963,1.15525 0,0 0,0.86642 0,0.86642 0,0 -0.46498,4.5247 -0.46498,4.5247 0,0 -0.62095,6.06503 -0.62095,6.06503 0,0 -0.93575,7.22028 -0.93575,7.22028 0,0 0,4.33215 0,4.33215 0,0 0.0963,1.44407 0.0963,1.44407 0,0 0,2.02167 0,2.02167 0,0 -0.0963,1.44405 -0.0963,1.44405 0,0 -0.19254,7.60535 -0.19254,7.60535 0,0 -0.0963,2.02169 -0.0963,2.02169 0,0 -0.19254,3.08063 -0.19254,3.08063 0,0 0,2.50303 0,2.50303 0,0 0.56124,5.87248 0.56124,5.87248 0,0 0.31386,4.81352 0.31386,4.81352 0.1935,2.82746 0.4775,5.63182 0.47268,8.47178 0,0 -0.0876,1.15524 -0.0876,1.15524 0,0 -0.21564,2.40676 -0.21564,2.40676 -0.0568,0.47172 -0.20409,1.39785 -0.15018,1.82913 0,0 1.42768,4.71725 1.42768,4.71725 0.61517,2.34034 0.97619,4.74035 1.3757,7.12399 0,0 0.7307,5.29488 0.7307,5.29488 0,0 0,1.63659 0,1.63659 -0.002,0.96174 -0.18388,2.15163 -1.05898,2.72251 -0.59687,0.38798 -1.53455,0.30518 -2.21422,0.38509 -1.23418,0.14729 -2.40193,0.42262 -3.46573,1.09843 -1.71649,1.09075 -2.81782,2.27006 -4.23589,3.68813 0,0 -3.32806,3.36946 -3.32806,3.36946 0,0 -4.60941,5.96874 -4.60941,5.96874 -0.98581,1.23226 -2.49244,3.44744 -4.28884,2.2354 -0.29266,-0.19832 -0.57281,-0.44187 -0.80964,-0.70374 -1.42865,-1.5769 -2.39135,-4.11747 -2.36727,-6.2489 0.0134,-1.18123 0.36485,-2.2662 1.5403,-2.74659 1.88979,-0.77209 5.73484,0.38027 7.27034,-2.16318 0.97522,-1.61447 0.37353,-3.60436 -0.3254,-5.1986 -0.36485,-0.83274 -0.93188,-2.06114 -0.86257,-2.98437 0.129,-1.69821 1.8301,-3.29149 2.96705,-4.42844 2.77258,-2.77258 5.86479,-5.24288 8.3678,-8.27925 0.73551,-0.89242 1.71168,-2.37594 2.09292,-3.46572 0.12997,-0.37256 0.31384,-0.95597 0.28401,-1.34778 -0.0452,-0.60939 -0.38894,-1.17932 -0.77691,-1.63276 -0.37642,-0.43899 -0.97907,-0.87412 -1.49604,-1.13309 -1.86571,-0.93382 -3.45418,-0.49193 -5.1986,0.43418 -1.11672,0.59303 -2.81108,1.962 -3.8508,2.77259 -3.02962,2.36054 -3.57741,2.73792 -6.26623,5.6241 0,0 -1.21589,1.25152 -1.21589,1.25152 -0.87222,0.98965 -1.81759,1.93214 -2.81881,2.79183 -0.56124,0.48231 -1.23803,0.99928 -2.02167,0.95211 -1.19759,-0.0713 -2.05345,-1.53359 -2.52612,-2.49242 -0.72588,-1.47102 -1.05417,-3.08354 -1.03588,-4.71725 0.0125,-1.06283 0.3331,-2.38751 1.34778,-2.91987 0.57379,-0.30133 1.28906,-0.36007 1.92542,-0.35333 0,0 3.08063,0.18388 3.08063,0.18388 0.5189,-0.0356 1.15621,-0.14441 1.63661,-0.34079 0.3793,-0.155 0.74031,-0.38027 1.04261,-0.65753 2.41541,-2.21807 0.0857,-5.77717 0.11263,-8.13868 0.0212,-1.85128 1.76174,-3.14227 3.08065,-4.19739 3.07198,-2.45778 6.45492,-4.56321 9.24194,-7.35505 1.65296,-1.65488 3.41087,-4.31964 1.97643,-6.64264 -1.43347,-2.323 -4.15503,-2.09677 -6.3086,-1.08016 0,0 -4.04334,2.31242 -4.04334,2.31242 0,0 -4.13963,2.65417 -4.13963,2.65417 0,0 -4.13962,3.40604 -4.13962,3.40604 -0.91744,0.75861 -1.98605,1.63274 -2.98437,2.26812 -0.48136,0.30517 -1.14369,0.67293 -1.73286,0.61132 -1.06282,-0.11071 -1.68762,-1.21108 -2.08811,-2.08521 -0.71047,-1.54995 -0.91554,-3.22408 -0.89628,-4.90978 0.0106,-0.90494 0.25898,-2.10832 0.88377,-2.78799 1.08208,-1.17546 2.66187,-0.71914 4.02602,-0.44669 0,0 1.73287,0.2657 1.73287,0.2657 0.29843,0.0328 0.45536,0.0857 0.77015,0.0635 0.49484,-0.0356 1.08979,-0.15018 1.54033,-0.35813 0.39952,-0.18386 0.74321,-0.44573 1.02719,-0.78074 1.18221,-1.39592 1.04263,-3.23565 0.76247,-4.90882 -0.23682,-1.40844 -0.542,-2.77451 0.3331,-4.04335 0.84044,-1.21782 3.0277,-2.45489 4.32735,-3.23468 3.35021,-2.00917 8.26961,-4.22338 10.57432,-7.35505 0.6017,-0.81734 1.21011,-2.03611 1.15043,-3.08066 -0.11552,-2.0544 -2.20748,-3.68713 -4.21568,-3.54467 -1.91769,0.13672 -3.65923,0.96368 -5.39112,1.72902 -4.04337,1.78774 -4.60173,2.02554 -8.37552,4.41977 0,0 -4.23589,2.61566 -4.23589,2.61566 -0.64982,0.34272 -1.46331,0.79231 -2.21423,0.73936 -0.77593,-0.0539 -1.25727,-0.59302 -1.60578,-1.24189 -0.55066,-1.0272 -0.89146,-2.97089 -0.89723,-4.13961 -0.002,-0.61229 0.0587,-1.42192 0.17329,-2.02168 0.10108,-0.52564 0.24644,-1.05223 0.46884,-1.54032 0.12032,-0.26571 0.2811,-0.54105 0.4669,-0.76631 0.57858,-0.70374 1.12251,-0.78365 1.97162,-0.77403 1.49507,0.0173 3.2703,1.11481 5.00605,1.15429 0.53719,0.0116 0.9396,-0.0366 1.44405,-0.23586 0.45344,-0.18003 0.7153,-0.38027 1.05512,-0.7278 1.20339,-1.22745 1.25825,-2.8159 1.25537,-4.42652 -0.002,-1.12925 -0.27438,-2.14682 0.22623,-3.27317 0.77786,-1.75117 3.75262,-2.89679 5.45372,-3.63133 3.21735,-1.38918 7.98369,-3.1182 10.58972,-5.29775 1.25536,-1.05127 2.71002,-2.67342 2.26139,-4.4525 -0.0972,-0.38508 -0.37353,-0.92901 -0.60457,-1.25151 -1.70881,-2.3875 -4.46983,-2.10062 -6.95168,-1.42961 -1.72516,0.4669 -6.12183,1.83972 -7.70163,2.48955 0,0 -4.5247,2.14104 -4.5247,2.14104 0,0 -3.75454,1.67607 -3.75454,1.67607 -0.52082,0.17906 -1.18701,0.40145 -1.73287,0.2455 -0.76822,-0.21855 -1.09651,-0.76343 -1.36607,-1.46428 -0.46498,-1.21204 -0.4775,-2.2922 -0.46306,-3.56201 0.0221,-1.87726 0.93093,-5.52109 3.36946,-5.34106 2.03034,0.14921 3.59858,1.80603 5.96876,1.77907 0.56222,-0.007 0.85585,-0.0905 1.34778,-0.37352 1.65393,-0.95116 2.08522,-3.0691 2.20555,-4.82507 0.0953,-1.39304 0.0741,-2.80628 1.26403,-3.78631 1.02143,-0.84141 3.03925,-1.46138 4.32832,-1.83779 0,0 6.93146,-2.05057 6.93146,-2.05057 1.54802,-0.46595 3.04405,-1.05994 4.52469,-1.70398 0.8337,-0.36294 1.6183,-0.82792 2.50303,-1.06475 z m -0.19254,123.91137 c 1.29869,0.0279 2.0159,1.77523 2.40195,2.82649 0.72684,1.98125 1.40264,4.48428 1.9177,6.54637 0.2811,1.12445 0.72683,2.90352 0.68255,4.04337 -0.025,0.645 -0.1858,1.57112 -0.53142,2.11794 -0.55643,0.88279 -1.31118,1.24766 -2.1603,1.7733 -0.97521,0.60457 -1.85127,1.20338 -2.69555,1.98989 -0.98005,0.91265 -1.95045,2.13046 -2.81591,3.16826 0,0 -3.08354,3.85082 -3.08354,3.85082 0,0 -2.80339,4.52469 -2.80339,4.52469 0,0 -2.50495,3.85082 -2.50495,3.85082 -0.42553,0.54682 -0.95404,1.1716 -1.69243,1.24189 -0.94057,0.0885 -1.76944,-0.51601 -2.40291,-1.14948 -1.28135,-1.27943 -2.58101,-3.83637 -2.60315,-5.6761 -0.009,-0.80674 -0.0731,-1.52587 0.43899,-2.2142 0.72203,-0.97233 1.81277,-1.11675 2.93047,-1.2775 1.87824,-0.27052 4.24168,-0.6123 4.99739,-2.66959 0.17329,-0.47269 0.21084,-0.84911 0.20024,-1.34777 -0.0299,-1.28907 -0.6787,-2.54636 -1.28039,-3.65828 -0.45825,-0.84814 -0.98484,-1.69916 -1.02528,-2.69556 -0.0616,-1.52589 1.12828,-2.98823 2.00627,-4.13963 0,0 2.21807,-2.69556 2.21807,-2.69556 0,0 4.36393,-5.19859 4.36393,-5.19859 0.80193,-0.96271 2.20363,-2.98631 3.44166,-3.21158 z m 7.22027,25.89669 c 1.54803,-0.31096 2.36054,0.95596 3.01326,2.15262 0.77305,1.41516 1.35644,2.93335 1.95429,4.42841 0.62767,1.56921 1.30926,3.29438 1.29001,5.00606 -0.0202,1.75019 -0.92226,2.55694 -2.00531,3.75455 0,0 -2.20844,2.50301 -2.20844,2.50301 -1.0166,1.32469 -4.14635,5.98031 -4.94539,7.41281 0,0 -2.46549,5.00605 -2.46549,5.00605 -0.59302,1.1851 -1.24476,2.56947 -1.98412,3.65828 -0.46884,0.69122 -1.00411,1.20626 -1.89076,1.14562 -0.86835,-0.0587 -1.80121,-0.75668 -2.40675,-1.34201 -1.46139,-1.41229 -3.21253,-4.42651 -2.72638,-6.54253 0.30614,-1.33526 1.34105,-1.77715 2.53385,-2.1035 1.89843,-0.5189 4.52662,-0.88088 5.19473,-3.09509 0.0934,-0.30903 0.19062,-0.83659 0.16559,-1.15524 -0.10494,-1.31891 -0.72685,-2.4828 -1.44502,-3.562 -0.74706,-1.12155 -1.53937,-2.05056 -1.5076,-3.46573 0.0346,-1.48835 1.07535,-3.01905 1.85802,-4.23588 0,0 4.55551,-6.64267 4.55551,-6.64267 0.78653,-1.04837 1.75886,-2.44815 3.02,-2.92276 z m 10.9748,23.57563 c 1.02336,-0.11842 1.89556,0.56222 2.5271,1.29773 1.18508,1.38243 2.05923,2.99014 3.02577,4.52373 0,0 3.20965,4.90978 3.20965,4.90978 0,0 2.36632,3.46573 2.36632,3.46573 0.59688,0.99351 1.47584,2.49533 0.86259,3.65827 -0.32829,0.62382 -1.04356,0.95403 -1.6905,1.15138 -0.90014,0.27438 -2.23251,0.38701 -3.17693,0.38895 0,0 -1.63659,0.0963 -1.63659,0.0963 -3.80363,0.006 -7.74687,0.26283 -11.07108,-1.9254 -1.03105,-0.6787 -2.36729,-1.6029 -2.6455,-2.8881 -0.0626,-0.28786 -0.053,-0.66428 -0.0501,-0.96272 0.0154,-1.28326 0.83947,-2.72733 1.41902,-3.85079 0,0 1.72805,-3.17694 1.72805,-3.17694 0,0 2.24888,-3.94708 2.24888,-3.94708 0.72011,-1.13598 1.5124,-2.37979 2.88329,-2.7408 z"
       style="fill:#000000;fill-opacity:1" />
    <path
       id="Selection-9-2"
       fill="none"
       stroke="#000000"
       stroke-width="0.0962706"
       d="m 1737.3064,522.47398 c 0,0 -5.7762,0 -5.7762,0 0,0 -10.3009,0 -10.3009,0 0,0 -0.9627,0.0741 -0.9627,0.0741 -1.5259,0.10398 -3.5408,0.11455 -4.7086,1.26981 -1.3353,1.32276 -0.4852,3.2058 0.3764,4.51508 0.904,1.3728 3.822,5.26212 4.9098,6.35384 1.0542,1.05705 2.1882,1.88689 3.7546,1.82527 0.9126,-0.0356 2.0139,-0.46979 2.8881,-0.72588 1.5162,-0.4438 2.8515,-0.78459 4.4284,-0.97617 0,0 2.6956,-0.21949 2.6956,-0.21949 0,0 1.2515,-0.0924 1.2515,-0.0924 0,0 1.444,0 1.444,0 0,0 1.6366,-0.10012 1.6366,-0.10012 0,0 8.2793,0 8.2793,0 1.3757,-0.0164 2.3076,-0.46401 2.5155,-1.9254 0.037,-0.25608 0.072,-0.41012 0.053,-0.67389 -0.232,-3.08066 -1.7261,-4.61713 -4.1088,-6.38947 -1.4874,-1.10614 -3.0123,-1.97257 -4.8135,-2.45295 -0.7317,-0.19447 -1.5557,-0.31095 -2.3105,-0.38316 0,0 -1.2515,-0.0992 -1.2515,-0.0992 z M 1618.2201,730.8856 c 0.086,0.7432 0.7009,1.21975 1.2515,1.67413 0,0 3.562,2.59353 3.562,2.59353 5.06,3.3733 10.2355,6.53097 15.4033,9.73196 0,0 18.0025,10.85735 18.0025,10.85735 0,0 28.1109,16.8473 28.1109,16.8473 0,0 6.4501,3.81712 6.4501,3.81712 2.1257,1.21301 3.7796,2.09292 6.2576,2.34129 0,0 0.6739,0.0722 0.6739,0.0722 0,0 0.6739,-0.0722 0.6739,-0.0722 2.6156,-0.2532 4.8472,-1.21109 7.0277,-2.66475 1.3969,-0.93191 2.5589,-2.03324 3.6313,-3.32038 1.2005,-1.44115 2.2566,-3.123 3.2443,-4.71724 2.0429,-3.29726 3.8335,-6.73795 5.5673,-10.20465 5.5856,-11.1712 10.015,-23.56599 13.2757,-35.61999 3.3945,-12.54978 5.8378,-25.77539 7.2212,-38.70064 0,0 0.6422,-5.87248 0.6422,-5.87248 0,0 0.5063,-6.54638 0.5063,-6.54638 0,0 0.2802,-4.71725 0.2802,-4.71725 0,0 0.096,-1.2515 0.096,-1.2515 0,0 0.096,-2.88812 0.096,-2.88812 0,0 0.096,-1.34778 0.096,-1.34778 0,0 0,-1.54031 0,-1.54031 0,0 0.096,-1.54032 0.096,-1.54032 0,0 0,-16.07714 0,-16.07714 0,0 -0.096,-1.44406 -0.096,-1.44406 0,0 -0.096,-3.17692 -0.096,-3.17692 0,0 -0.096,-1.34777 -0.096,-1.34777 0,0 -0.096,-2.40675 -0.096,-2.40675 0,0 -0.096,-1.34778 -0.096,-1.34778 0,0 -0.088,-1.3478 -0.088,-1.3478 0,0 -0.1136,-2.31047 -0.1136,-2.31047 0,0 -0.1752,-1.92542 -0.1752,-1.92542 -0.2648,-3.86525 -0.6884,-7.70259 -1.1495,-11.55243 -1.4334,-11.9895 -3.0623,-21.19293 -5.9957,-32.92443 0,0 -1.5682,-6.16129 -1.5682,-6.16129 -1.3834,-4.97235 -2.9767,-9.86866 -4.7067,-14.72934 -1.1851,-3.33001 -2.3971,-6.65422 -3.7651,-9.91584 0,0 -4.0241,-8.7606 -4.0241,-8.7606 0,0 -2.5541,-5.39113 -2.5541,-5.39113 0,0 -2.4972,-4.71724 -2.4972,-4.71724 -0.8135,-1.50085 -1.626,-3.03732 -2.7534,-4.33217 -1.6154,-1.85706 -4.3543,-3.29339 -6.711,-3.96055 -0.7595,-0.21468 -1.9138,-0.45825 -2.6955,-0.46787 0,0 -1.2515,0 -1.2515,0 -1.5375,0.0183 -3.3531,0.64212 -4.7173,1.32372 -2.6821,1.34104 -4.7962,3.11241 -6.7148,5.41519 -2.0968,2.51651 -4.3322,6.02459 -6.0314,8.85686 -2.4115,4.01832 -4.6777,8.15891 -6.6339,12.41886 0,0 -3.2992,7.31655 -3.2992,7.31655 -1.7483,4.16754 -3.3002,8.43037 -4.7577,12.70768 -4.6595,13.67903 -8.0559,29.47024 -9.9428,43.80295 -0.645,4.90208 -1.1832,9.80128 -1.522,14.72936 0,0 -0.4727,7.31653 -0.4727,7.31653 0,0 -0.096,1.25153 -0.096,1.25153 0,0 0,1.25151 0,1.25151 0,0 -0.096,1.44404 -0.096,1.44404 0,0 -0.1925,7.12401 -0.1925,7.12401 0,0 -0.096,1.63658 -0.096,1.63658 0,0 0,3.65828 0,3.65828 0,0 0.096,1.6366 0.096,1.6366 0,0 0.2888,9.81956 0.2888,9.81956 0,0 0.092,0.96271 0.092,0.96271 0,0 0,0.96269 0,0.96269 0,0 0.1001,1.54033 0.1001,1.54033 0,0 0.1839,2.50303 0.1839,2.50303 0,0 0.4736,6.16129 0.4736,6.16129 0.9329,9.63087 2.2758,19.19243 4.1752,28.68853 0,0 1.3093,6.25757 1.3093,6.25757 0.1926,0.96366 0.5555,3.01999 0.492,3.94708 -0.055,0.81348 -0.2118,1.68282 -0.5998,2.40675 -0.8607,1.60193 -2.659,2.29027 -4.3976,2.31049 0,0 -0.4814,0 -0.4814,0 0,0 -1.0589,0.0799 -1.0589,0.0799 -0.4862,0.0491 -1.1688,0.0434 -0.88,0.78652 0.1281,0.33021 0.5324,0.71047 0.7837,0.96271 0.5795,0.58244 1.1889,1.12155 1.8291,1.63659 0,0 7.0277,5.20631 7.0277,5.20631 1.136,1.04355 1.9534,1.92925 2.7486,3.26546 1.3439,2.25949 2.58,6.10355 3.586,8.66433 0.5517,1.40363 1.2352,3.26934 1.5952,4.71724 0.1367,0.54875 0.3707,1.77329 0.3322,2.31048 -0.1406,1.96586 -1.2005,3.26357 -3.2559,3.2732 0,0 -0.4813,0 -0.4813,0 -1.4412,-0.0173 -3.5726,-0.87607 -4.9098,-1.44406 0,0 -7.7979,-3.53216 -7.7979,-3.53216 -8.6364,-3.95574 -17.2545,-7.99042 -25.993,-11.71898 0,0 -8.0867,-3.29917 -8.0867,-3.29917 -1.3054,-0.46596 -2.8332,-1.11289 -4.2359,-0.99255 z m 136.6075,-206.91847 c -0.7114,-0.14729 -1.4854,-0.0713 -1.9812,0.52467 -0.6113,0.7336 -0.3042,1.88113 0.6334,2.14972 0.6373,0.18291 1.3651,-0.026 1.7916,-0.53141 0.6104,-0.72492 0.4573,-1.75598 -0.4438,-2.14298 z m 17.5212,0.55548 c -2.994,-0.35619 -4.4939,2.83421 -5.6077,5.06189 0,0 -1.059,2.21422 -1.059,2.21422 0,0 -2.4982,5.29486 -2.4982,5.29486 -0.5661,1.41037 -0.8154,2.23925 -0.9598,3.75455 -0.026,0.27147 -0.07,0.38218 -0.049,0.67388 0.1251,1.67413 0.3821,2.66572 0.9626,4.23589 0.4891,1.32276 1.4066,3.46189 2.2884,4.52375 0.542,0.65174 1.239,1.22552 2.1093,1.33141 1.5124,0.18292 2.6869,-0.80193 3.5812,-1.90808 1.5673,-1.93888 3.2222,-4.99643 4.491,-7.22026 1.1254,-1.97162 2.0227,-3.49075 3.6728,-5.10137 1.2187,-1.18894 2.7379,-1.84356 2.6945,-3.7555 -0.032,-1.39303 -0.9155,-2.78799 -1.7521,-3.8508 -1.5085,-1.91482 -4.2628,-4.25419 -6.6224,-5.00316 -0.5276,-0.16751 -0.7259,-0.17137 -1.2515,-0.25128 z m 15.7883,19.26752 c -1.083,-0.18868 -1.5393,0.34658 -2.1093,1.19761 0,0 -2.4558,4.33217 -2.4558,4.33217 0,0 -4.4545,7.22027 -4.4545,7.22027 0,0 -2.5732,3.94708 -2.5732,3.94708 -1.7252,2.75621 -3.2655,4.72495 -3.5043,8.08669 -0.029,0.41301 0.1694,1.84551 0.2474,2.31049 0,0 0.3736,1.63659 0.3736,1.63659 0.5853,2.34322 1.625,6.6725 4.8491,6.03519 1.4209,-0.28112 2.9651,-1.88402 3.8585,-2.95453 0,0 2.9882,-3.85082 2.9882,-3.85082 0.9454,-1.28328 1.8812,-2.58196 2.9652,-3.75453 1.161,-1.25633 2.6301,-2.52517 4.4361,-2.59545 0.5487,-0.0212 1.1244,0.0972 1.6366,0.29073 0.4265,0.16174 0.9001,0.40915 1.2515,0.69989 2.3971,1.98027 1.3199,5.48162 0.1675,7.86239 -1.0878,2.2479 -3.0084,4.77885 -4.5767,6.73891 0,0 -5.6106,6.83519 -5.6106,6.83519 -1.4161,1.69629 -3.6371,4.22434 -4.415,6.25757 -0.4775,1.24766 -0.5988,2.43083 -0.5834,3.75455 0.02,1.66643 0.6518,5.46911 1.3834,6.93146 0.5651,1.13021 1.523,1.99374 2.8525,1.91674 1.7521,-0.10207 3.6313,-1.79351 4.8135,-2.97572 0,0 3.6496,-3.75453 3.6496,-3.75453 1.3161,-1.4123 2.8092,-3.05467 4.5334,-3.96828 1.6944,-0.89723 3.4484,-0.9964 4.9098,0.41012 0.4111,0.39567 0.6883,0.7278 0.9319,1.24766 0.4207,0.89917 0.4265,1.4479 0.4159,2.40676 -0.032,2.68016 -2.3346,5.78295 -4.0386,7.70162 -3.2914,3.70641 -7.0941,6.89681 -10.5945,10.39719 -2.4722,2.47221 -4.5767,4.43806 -4.621,8.18297 0,0 0,2.31049 0,2.31049 0,0.73934 0.1704,2.23731 0.2965,2.98437 0.099,0.59014 0.2446,1.17835 0.4756,1.73287 0.8491,2.04092 2.5762,2.25369 4.4265,1.52107 2.2017,-0.87221 5.783,-4.02411 7.7016,-5.62123 0.8068,-0.67099 1.6289,-1.34778 2.5031,-1.93117 1.005,-0.67004 2.4308,-1.42192 3.6582,-1.47389 2.3914,-0.10109 4.2388,2.09869 4.0906,4.42458 -0.2109,3.29533 -2.3837,5.57403 -4.6682,7.70354 -3.0575,2.85056 -8.1406,6.27007 -11.5524,8.95119 -1.961,1.5413 -4.1521,3.03734 -5.2121,5.39114 -1.0301,2.28931 -1.4017,6.19211 -1.0031,8.66433 0.3061,1.90037 1.1235,3.22312 3.2308,3.17595 1.4065,-0.0328 3.0335,-0.86837 4.2359,-1.55379 0,0 6.7389,-4.22146 6.7389,-4.22146 1.2246,-0.73453 3.356,-1.82144 4.8135,-1.71553 2.3269,0.16943 3.8046,2.03997 3.7536,4.31483 -0.078,3.42241 -3.3569,6.24217 -5.9678,7.99042 -3.6217,2.42601 -7.4754,4.55744 -11.2636,6.71196 -2.3201,1.31987 -5.2073,2.89004 -6.5993,5.22557 -0.3947,0.6633 -0.6682,1.38724 -0.9098,2.11794 0,0 -0.4813,1.82913 -0.4813,1.82913 0,0 -0.2648,1.44405 -0.2648,1.44405 -0.3523,2.11314 -0.8616,5.59812 1.8051,6.42893 0.3947,0.12323 0.6556,0.11649 1.059,0.11745 0,0 0.385,0 0.385,0 1.2708,-0.0154 2.8795,-0.67004 4.0434,-1.16969 0,0 6.2576,-2.99977 6.2576,-2.99977 1.5749,-0.72107 3.2443,-1.43443 5.006,-1.41421 2.2084,0.0259 3.6785,1.72131 3.8335,3.8508 0.044,0.61998 -0.2205,1.63178 -0.4457,2.21422 -0.9724,2.50881 -3.2559,4.14444 -5.5057,5.43156 -2.8853,1.65104 -9.4759,4.36875 -12.804,5.8051 -2.5637,1.10615 -5.3882,2.19497 -7.1557,4.4554 -0.4458,0.56991 -0.879,1.35547 -1.1639,2.02166 0,0 -0.6653,1.73288 -0.6653,1.73288 0,0 -0.4216,1.34778 -0.4216,1.34778 -0.6056,2.11024 -1.4518,5.76561 1.3198,6.72928 0.4015,0.13959 0.8289,0.19639 1.2515,0.20216 0,0 0.4814,0 0.4814,0 1.2313,-0.0145 3.1461,-0.56702 4.3321,-0.96269 0,0 5.68,-1.95717 5.68,-1.95717 1.1023,-0.36775 2.8024,-0.91746 3.9471,-0.93094 0,0 0.8664,0 0.8664,0 2.8207,0.0337 4.4429,2.7023 3.6544,5.29486 -0.6508,2.14202 -2.4221,3.7632 -4.3283,4.82699 -2.0717,1.15524 -4.8462,2.0727 -7.124,2.78029 0,0 -8.3755,2.59544 -8.3755,2.59544 -2.5078,0.77882 -5.7319,1.61253 -7.5774,3.5726 -1.2621,1.34008 -2.143,3.2029 -2.8198,4.90111 -0.5121,1.28329 -0.9781,2.64742 -0.9627,4.04334 0.023,1.98606 1.2294,2.87368 3.0807,3.09511 0.3937,0.0471 0.541,0.0943 0.9627,0.078 2.8207,-0.10975 6.2527,-1.15236 9.0494,-1.76945 1.0878,-0.24069 2.863,-0.61999 3.947,-0.63346 1.0099,-0.0116 2.0853,0.11071 2.9844,0.61132 1.858,1.03298 2.6667,3.28184 1.937,5.26117 -0.5016,1.36318 -1.6944,2.42312 -2.8997,3.17113 -2.3663,1.46812 -5.6578,2.2354 -8.3755,2.79761 0,0 -9.5307,1.90616 -9.5307,1.90616 -2.144,0.42839 -4.9397,0.87125 -6.8352,1.93117 -2.0718,1.1591 -3.4118,3.23373 -4.4525,5.30835 -0.4669,0.9319 -0.8751,1.77619 -1.1428,2.79185 -0.4072,1.54609 -0.3908,3.25489 1.1668,4.15117 0.3562,0.20505 0.7558,0.3533 1.1553,0.4467 0.6363,0.15017 1.6501,0.22334 2.3105,0.21564 0,0 2.1179,-0.17619 2.1179,-0.17619 3.3329,-0.33309 7.1153,-1.11384 10.3972,-1.07534 0,0 4.621,0.47269 4.621,0.47269 2.1892,-0.12418 3.5032,-1.33334 4.8135,-2.9757 1.446,-1.81277 3.795,-5.61833 4.9791,-7.70162 0.9964,-1.75213 1.9215,-3.54661 2.736,-5.39114 0,0 1.7444,-4.13963 1.7444,-4.13963 0,0 2.9295,-5.29486 2.9295,-5.29486 0,0 1.3478,-2.79184 1.3478,-2.79184 1.8599,-4.06067 4.2715,-10.7091 5.6116,-15.01816 0,0 1.418,-5.00605 1.418,-5.00605 0,0 3.2155,-11.26362 3.2155,-11.26362 1.1562,-4.62867 2.1429,-9.34975 2.9324,-14.05544 0,0 1.1263,-7.70162 1.1263,-7.70162 0,0 1.5943,-11.07109 1.5943,-11.07109 0,0 0.6989,-8.27924 0.6989,-8.27924 0,0 0.1839,-2.79183 0.1839,-2.79183 0,0 0.092,-1.05898 0.092,-1.05898 0,0 0,-1.34778 0,-1.34778 0,0 0.1001,-1.44405 0.1001,-1.44405 0,0 0,-4.04336 0,-4.04336 0,0 0.092,-1.15523 0.092,-1.15523 0,0 0,-1.25152 0,-1.25152 0,0 0.1001,-0.96271 0.1001,-0.96271 0,0 0,-0.86643 0,-0.86643 0,0 0.1925,-2.98437 0.1925,-2.98437 0,0 0.096,-1.6366 0.096,-1.6366 0,0 0,-5.39114 0,-5.39114 0,0 -0.096,-1.44404 -0.096,-1.44404 0,0 0,-1.25152 0,-1.25152 0,0 -0.096,-1.54032 -0.096,-1.54032 0,0 -0.1925,-5.39114 -0.1925,-5.39114 0,0 -0.088,-0.9627 -0.088,-0.9627 0,0 -0.2176,-3.27319 -0.2176,-3.27319 0,0 -0.5699,-5.96875 -0.5699,-5.96875 0,0 -0.088,-0.9627 -0.088,-0.9627 0,0 -0.096,-2.31049 -0.096,-2.31049 0,0 -0.092,-1.05898 -0.092,-1.05898 -0.1232,-2.83804 -0.4727,-5.65395 -0.8433,-8.47178 -0.568,-4.31483 -1.2592,-8.64218 -2.1651,-12.90021 0,0 -0.9984,-4.13963 -0.9984,-4.13963 0,0 -1.4315,-7.70161 -1.4315,-7.70161 0,0 -1.4566,-6.06503 -1.4566,-6.06503 -1.0204,-3.66983 -2.0168,-7.52256 -3.3916,-11.07107 0,0 -1.3911,-3.2732 -1.3911,-3.2732 0,0 -1.703,-3.56199 -1.703,-3.56199 0,0 -1.547,-5.77622 -1.547,-5.77622 -0.8347,-2.68401 -1.9977,-5.26117 -3.1962,-7.79789 -1.0898,-2.30761 -2.1815,-4.64987 -3.5023,-6.83519 -0.6075,-1.00505 -1.4903,-2.24502 -2.6378,-2.64166 z m -48.2314,0.3514 c 0,0 -3.8508,0 -3.8508,0 -1.5548,-0.0202 -3.6015,-0.0847 -5.1023,0.19735 -1.5971,0.29941 -2.4443,0.96174 -2.4058,2.67054 0.029,1.24958 0.7105,2.81399 1.2217,3.94708 0.772,1.71264 1.6606,3.55815 2.7263,5.10233 0.7047,1.02046 1.73,2.06403 3.0788,1.97257 0.8837,-0.0607 2.3104,-0.645 3.2732,-0.89916 1.1764,-0.30999 2.6339,-0.41301 3.8508,-0.39952 0,0 1.5403,0.0962 1.5403,0.0962 0,0 2.503,0.18389 2.503,0.18389 0,0 2.118,0.12129 2.118,0.12129 2.1882,0.20795 3.6707,0.57956 5.7762,1.00411 0,0 4.1396,0.81637 4.1396,0.81637 0.6614,0.10878 1.5702,0.27341 2.2142,0.0953 1.445,-0.3976 1.4585,-1.9591 1.4441,-3.18366 -0.021,-1.78966 -0.8857,-4.13288 -2.0506,-5.4874 -0.7461,-0.86739 -1.7887,-1.49701 -2.9555,-1.13407 -1.8157,0.56511 -3.5803,3.06332 -5.7762,3.1519 -0.4544,0.0183 -0.8318,-0.0404 -1.2515,-0.22143 -1.4778,-0.63732 -2.297,-2.17475 -2.7919,-3.62554 -0.3205,-0.94249 -0.6883,-2.24406 -1.3651,-2.98053 -1.0002,-1.08689 -3.2809,-1.3497 -4.6999,-1.35163 -0.5478,-0.002 -1.0926,0.0221 -1.6366,-0.076 z m -46.7873,18.8757 c 0.5824,0.0857 1.0618,0.14057 1.6366,0.30326 4.232,1.19375 7.3175,4.61808 9.5712,8.23785 4.3668,7.0104 7.1923,16.05017 9.0937,24.06756 1.884,7.94325 3.2664,16.04632 4.1357,24.16383 0,0 0.7057,7.31654 0.7057,7.31654 0,0 0.465,5.48741 0.465,5.48741 0,0 0,0.86642 0,0.86642 0,0 0.096,1.44406 0.096,1.44406 0,0 0.096,1.44405 0.096,1.44405 0,0 0.096,2.50304 0.096,2.50304 0,0 0.096,1.54031 0.096,1.54031 0,0 0,1.34779 0,1.34779 0,0 0.096,1.54031 0.096,1.54031 0,0 0,2.21423 0,2.21423 0,0 0.096,1.63659 0.096,1.63659 0,0 0,9.14567 0,9.14567 0,0 -0.096,1.54034 -0.096,1.54034 0,0 0,2.11794 0,2.11794 0,0 -0.096,1.44405 -0.096,1.44405 0,0 0,1.44406 0,1.44406 0,0 -0.092,1.15523 -0.092,1.15523 0,0 0,1.15525 0,1.15525 0,0 -0.1002,1.34778 -0.1002,1.34778 0,0 -0.096,2.21422 -0.096,2.21422 0,0 -0.1838,2.50303 -0.1838,2.50303 0,0 -0.6662,7.99042 -0.6662,7.99042 -0.802,8.28214 -1.7319,14.83524 -3.3666,23.0086 -1.1004,5.49992 -2.6965,11.76518 -4.5738,17.03982 -1.5288,4.29751 -3.5398,9.10235 -6.067,12.90022 -2.141,3.21639 -4.8606,6.26238 -8.6325,7.50908 -0.722,0.23875 -1.7454,0.47172 -2.503,0.48135 -1.6135,0.0183 -2.4674,0.0154 -4.0434,-0.48424 -3.613,-1.14466 -6.4597,-4.24841 -8.5035,-7.31366 -2.3519,-3.52637 -4.1743,-7.6814 -5.653,-11.64869 -1.5288,-4.10111 -2.9382,-8.62774 -3.8864,-12.9002 0,0 -1.9409,-9.04942 -1.9409,-9.04942 -1.4989,-8.31101 -2.5511,-16.71058 -3.1297,-25.12653 0,0 -0.1752,-1.92539 -0.1752,-1.92539 0,0 -0.1136,-2.11797 -0.1136,-2.11797 0,0 -0.088,-1.05897 -0.088,-1.05897 0,0 -0.096,-1.73285 -0.096,-1.73285 0,0 -0.1001,-1.6366 -0.1001,-1.6366 0,0 0,-1.25151 0,-1.25151 0,0 -0.092,-1.05897 -0.092,-1.05897 0,0 0,-1.73288 0,-1.73288 0,0 -0.096,-1.63659 -0.096,-1.63659 0,0 0,-16.17341 0,-16.17341 0,0 0.096,-1.44404 0.096,-1.44404 0.01,-3.6371 0.3215,-7.25494 0.5689,-10.87855 0.5536,-8.08669 1.4354,-16.16473 2.8246,-24.16382 0,0 1.4007,-7.22028 1.4007,-7.22028 1.1918,-5.95913 3.0171,-12.42079 5.1774,-18.0988 1.3209,-3.47247 3.4417,-8.0684 5.5837,-11.07108 0.7884,-1.10615 1.6058,-2.194 2.5473,-3.17692 2.6243,-2.73985 6.1478,-4.56801 10.0083,-4.20894 z m 47.2687,2.9016 c -1.1976,-0.14537 -2.4251,-0.0568 -2.7986,1.30735 -0.087,0.31575 -0.088,0.5449 -0.089,0.86643 -0.01,1.44983 0.4226,2.8573 0.826,4.23589 0,0 1.961,5.87249 1.961,5.87249 0.4467,1.19952 1.2891,3.16826 2.2229,4.02603 1.367,1.25438 2.6282,-0.36101 3.8469,-1.01086 1.2544,-0.66907 2.4559,-0.81732 3.8509,-0.80095 1.2312,0.0145 3.355,0.47364 4.6209,0.71143 3.9943,0.749 4.6739,0.85874 8.5681,2.20941 0,0 4.1396,1.37858 4.1396,1.37858 0.6777,0.21084 1.8109,0.53142 2.503,0.36679 1.4701,-0.35041 1.6511,-2.46162 1.6366,-3.70351 -0.01,-0.74224 -0.2204,-1.97548 -0.4264,-2.69556 -0.2022,-0.70856 -0.4525,-1.27944 -0.8049,-1.92542 -0.2166,-0.39759 -0.4736,-0.7355 -0.7942,-1.05512 -1.0869,-1.08303 -2.2874,-0.92996 -3.5581,-0.26186 -1.705,0.89725 -3.8615,2.65418 -5.8725,1.57499 -1.6116,-0.86451 -2.17,-2.73022 -2.5031,-4.39763 -0.232,-1.15909 -0.4264,-2.42311 -1.3497,-3.25585 -1.1408,-1.02817 -3.4214,-1.34971 -4.9078,-1.63467 0,0 -4.2359,-0.70084 -4.2359,-0.70084 0,0 -6.8352,-1.10712 -6.8352,-1.10712 z m 5.1023,21.86297 c -1.8561,-0.27534 -1.5538,2.34226 -1.5403,3.51194 0.019,1.64333 1.0349,6.14685 1.4055,7.99043 0,0 1.2631,5.4874 1.2631,5.4874 0.6305,2.12372 1.4671,4.20315 1.471,6.4501 0,0 0,2.88811 0,2.88811 0,0 0.096,1.15525 0.096,1.15525 0,0 0,0.86642 0,0.86642 0,0 0.465,4.5247 0.465,4.5247 0,0 0.6209,6.06503 0.6209,6.06503 0,0 0.9358,7.22028 0.9358,7.22028 0,0 0,4.33215 0,4.33215 0,0 -0.096,1.44407 -0.096,1.44407 0,0 0,2.02167 0,2.02167 0,0 0.096,1.44405 0.096,1.44405 0,0 0.1925,7.60535 0.1925,7.60535 0,0 0.096,2.02169 0.096,2.02169 0,0 0.1926,3.08063 0.1926,3.08063 0,0 0,2.50303 0,2.50303 0,0 -0.5613,5.87248 -0.5613,5.87248 0,0 -0.3138,4.81352 -0.3138,4.81352 -0.1935,2.82746 -0.4775,5.63182 -0.4727,8.47178 0,0 0.088,1.15524 0.088,1.15524 0,0 0.2156,2.40676 0.2156,2.40676 0.057,0.47172 0.2041,1.39785 0.1502,1.82913 0,0 -1.4277,4.71725 -1.4277,4.71725 -0.6152,2.34034 -0.9762,4.74035 -1.3757,7.12399 0,0 -0.7307,5.29488 -0.7307,5.29488 0,0 0,1.63659 0,1.63659 0,0.96174 0.1839,2.15163 1.059,2.72251 0.5969,0.38798 1.5345,0.30518 2.2142,0.38509 1.2342,0.14729 2.4019,0.42263 3.4657,1.09843 1.7165,1.09075 2.8179,2.27006 4.2359,3.68813 0,0 3.3281,3.36946 3.3281,3.36946 0,0 4.6094,5.96875 4.6094,5.96875 0.9858,1.23226 2.4924,3.44744 4.2888,2.2354 0.2927,-0.19832 0.5729,-0.44187 0.8097,-0.70374 1.4286,-1.57691 2.3913,-4.11748 2.3673,-6.24891 -0.013,-1.18123 -0.3649,-2.2662 -1.5403,-2.74659 -1.8898,-0.77209 -5.7349,0.38027 -7.2704,-2.16318 -0.9752,-1.61447 -0.3735,-3.60436 0.3254,-5.1986 0.3649,-0.83274 0.9319,-2.06114 0.8626,-2.98437 -0.129,-1.69821 -1.8301,-3.29149 -2.9671,-4.42844 -2.7725,-2.77258 -5.8648,-5.24288 -8.3678,-8.27925 -0.7355,-0.89242 -1.7116,-2.37594 -2.0929,-3.46572 -0.13,-0.37256 -0.3138,-0.95597 -0.284,-1.34778 0.045,-0.60939 0.3889,-1.17932 0.7769,-1.63276 0.3764,-0.43899 0.9791,-0.87412 1.4961,-1.13309 1.8657,-0.93382 3.4541,-0.49193 5.1986,0.43418 1.1167,0.59303 2.811,1.962 3.8508,2.77259 3.0296,2.36054 3.5774,2.73792 6.2662,5.6241 0,0 1.2159,1.25152 1.2159,1.25152 0.8722,0.98965 1.8176,1.93214 2.8188,2.79183 0.5612,0.48231 1.238,0.99928 2.0217,0.95211 1.1975,-0.0713 2.0534,-1.53359 2.5261,-2.49242 0.7259,-1.47102 1.0541,-3.08354 1.0359,-4.71725 -0.013,-1.06283 -0.3331,-2.38751 -1.3478,-2.91987 -0.5738,-0.30133 -1.2891,-0.36007 -1.9254,-0.35333 0,0 -3.0807,0.18388 -3.0807,0.18388 -0.5189,-0.0356 -1.1562,-0.14441 -1.6366,-0.34079 -0.3793,-0.155 -0.7403,-0.38027 -1.0426,-0.65753 -2.4154,-2.21807 -0.086,-5.77717 -0.1126,-8.13868 -0.021,-1.85128 -1.7618,-3.14227 -3.0807,-4.19739 -3.072,-2.45778 -6.4549,-4.56321 -9.2419,-7.35505 -1.653,-1.65488 -3.4109,-4.31964 -1.9764,-6.64264 1.4334,-2.323 4.155,-2.09677 6.3086,-1.08016 0,0 4.0433,2.31242 4.0433,2.31242 0,0 4.1396,2.65417 4.1396,2.65417 0,0 4.1396,3.40604 4.1396,3.40604 0.9175,0.75861 1.9861,1.63274 2.9844,2.26812 0.4814,0.30517 1.1437,0.67293 1.7329,0.61132 1.0628,-0.11071 1.6876,-1.21108 2.0881,-2.08521 0.7105,-1.54995 0.9155,-3.22408 0.8963,-4.90978 -0.011,-0.90494 -0.259,-2.10832 -0.8838,-2.78799 -1.0821,-1.17546 -2.6619,-0.71914 -4.026,-0.44669 0,0 -1.7329,0.2657 -1.7329,0.2657 -0.2984,0.0328 -0.4554,0.0857 -0.7701,0.0635 -0.4949,-0.0356 -1.0898,-0.15018 -1.5404,-0.35813 -0.3995,-0.18386 -0.7432,-0.44573 -1.0272,-0.78074 -1.1822,-1.39592 -1.0426,-3.23565 -0.7624,-4.90882 0.2368,-1.40844 0.542,-2.77451 -0.3331,-4.04335 -0.8405,-1.21782 -3.0277,-2.45489 -4.3274,-3.23468 -3.3502,-2.00917 -8.2696,-4.22338 -10.5743,-7.35505 -0.6017,-0.81734 -1.2101,-2.03611 -1.1504,-3.08066 0.1155,-2.0544 2.2074,-3.68713 4.2156,-3.54467 1.9177,0.13672 3.6593,0.96368 5.3912,1.72902 4.0433,1.78774 4.6017,2.02554 8.3755,4.41977 0,0 4.2359,2.61566 4.2359,2.61566 0.6498,0.34272 1.4633,0.79231 2.2142,0.73936 0.7759,-0.0539 1.2573,-0.59302 1.6058,-1.24189 0.5506,-1.0272 0.8914,-2.97089 0.8972,-4.13961 0,-0.61229 -0.059,-1.42192 -0.1733,-2.02168 -0.1011,-0.52564 -0.2464,-1.05223 -0.4688,-1.54032 -0.1203,-0.26571 -0.2811,-0.54105 -0.4669,-0.7663 -0.5786,-0.70375 -1.1225,-0.78365 -1.9716,-0.77404 -1.4951,0.0173 -3.2703,1.11482 -5.0061,1.15429 -0.5372,0.0116 -0.9396,-0.0366 -1.444,-0.23586 -0.4535,-0.18003 -0.7153,-0.38027 -1.0552,-0.7278 -1.2033,-1.22745 -1.2582,-2.8159 -1.2553,-4.42652 0,-1.12925 0.2744,-2.14682 -0.2263,-3.27317 -0.7778,-1.75117 -3.7526,-2.89679 -5.4537,-3.63133 -3.2173,-1.38918 -7.9837,-3.1182 -10.5897,-5.29775 -1.2554,-1.05127 -2.71,-2.67342 -2.2614,-4.4525 0.097,-0.38508 0.3735,-0.92901 0.6046,-1.25151 1.7088,-2.3875 4.4698,-2.10062 6.9517,-1.42961 1.7251,0.4669 6.1218,1.83972 7.7016,2.48955 0,0 4.5247,2.14104 4.5247,2.14104 0,0 3.7545,1.67607 3.7545,1.67607 0.5209,0.17906 1.187,0.40145 1.7329,0.2455 0.7682,-0.21855 1.0965,-0.76343 1.3661,-1.46428 0.465,-1.21204 0.4775,-2.2922 0.463,-3.56201 -0.022,-1.87726 -0.9309,-5.52109 -3.3694,-5.34106 -2.0304,0.14921 -3.5986,1.80603 -5.9688,1.77907 -0.5622,-0.007 -0.8558,-0.0905 -1.3478,-0.37352 -1.6539,-0.95116 -2.0852,-3.0691 -2.2055,-4.82507 -0.095,-1.39304 -0.074,-2.80628 -1.264,-3.78631 -1.0215,-0.84141 -3.0393,-1.46138 -4.3284,-1.83779 0,0 -6.9314,-2.05057 -6.9314,-2.05057 -1.548,-0.46595 -3.0441,-1.05994 -4.5247,-1.70398 -0.8337,-0.36294 -1.6183,-0.82792 -2.503,-1.06475 z m 0.1925,123.91137 c -1.2987,0.0279 -2.0159,1.77523 -2.4019,2.82649 -0.7269,1.98125 -1.4027,4.48428 -1.9177,6.54637 -0.2811,1.12445 -0.7268,2.90352 -0.6826,4.04337 0.025,0.645 0.1858,1.57112 0.5315,2.11794 0.5564,0.88279 1.3111,1.24766 2.1603,1.7733 0.9752,0.60456 1.8512,1.20338 2.6955,1.98988 0.9801,0.91265 1.9505,2.13046 2.8159,3.16826 0,0 3.0836,3.85082 3.0836,3.85082 0,0 2.8033,4.52469 2.8033,4.52469 0,0 2.505,3.85082 2.505,3.85082 0.4255,0.54682 0.954,1.1716 1.6924,1.24189 0.9406,0.0885 1.7695,-0.51601 2.4029,-1.14948 1.2814,-1.27943 2.581,-3.83637 2.6032,-5.6761 0.01,-0.80674 0.073,-1.52587 -0.439,-2.2142 -0.722,-0.97233 -1.8128,-1.11675 -2.9305,-1.2775 -1.8782,-0.27052 -4.2417,-0.6123 -4.9974,-2.66959 -0.1733,-0.47269 -0.2108,-0.84911 -0.2002,-1.34777 0.03,-1.28907 0.6787,-2.54636 1.2804,-3.65828 0.4582,-0.84813 0.9848,-1.69916 1.0253,-2.69556 0.062,-1.52589 -1.1283,-2.98823 -2.0063,-4.13963 0,0 -2.2181,-2.69556 -2.2181,-2.69556 0,0 -4.3639,-5.19859 -4.3639,-5.19859 -0.8019,-0.96271 -2.2036,-2.98631 -3.4417,-3.21157 z m -7.2202,25.89669 c -1.5481,-0.31096 -2.3606,0.95596 -3.0133,2.15262 -0.773,1.41516 -1.3564,2.93335 -1.9543,4.42841 -0.6277,1.56921 -1.3092,3.29438 -1.29,5.00606 0.02,1.75019 0.9223,2.55694 2.0053,3.75455 0,0 2.2085,2.50301 2.2085,2.50301 1.0166,1.32469 4.1463,5.98031 4.9453,7.41281 0,0 2.4655,5.00605 2.4655,5.00605 0.5931,1.1851 1.2448,2.56947 1.9842,3.65828 0.4688,0.69122 1.0041,1.20626 1.8907,1.14562 0.8684,-0.0587 1.8012,-0.75668 2.4068,-1.34201 1.4614,-1.41229 3.2125,-4.42651 2.7263,-6.54253 -0.3061,-1.33526 -1.341,-1.77715 -2.5338,-2.1035 -1.8984,-0.51891 -4.5266,-0.88089 -5.1947,-3.0951 -0.093,-0.30903 -0.1907,-0.83659 -0.1656,-1.15524 0.1049,-1.31891 0.7268,-2.4828 1.445,-3.562 0.7471,-1.12155 1.5394,-2.05056 1.5076,-3.46573 -0.035,-1.48835 -1.0754,-3.01905 -1.858,-4.23588 0,0 -4.5555,-6.64266 -4.5555,-6.64266 -0.7866,-1.04837 -1.7589,-2.44816 -3.02,-2.92276 z m -10.9748,23.57563 c -1.0234,-0.11842 -1.8956,0.56222 -2.5271,1.29773 -1.1851,1.38243 -2.0593,2.99014 -3.0258,4.52373 0,0 -3.2097,4.90978 -3.2097,4.90978 0,0 -2.3663,3.46573 -2.3663,3.46573 -0.5969,0.99351 -1.4758,2.49533 -0.8626,3.65827 0.3283,0.62382 1.0436,0.95403 1.6905,1.15138 0.9002,0.27438 2.2325,0.38701 3.177,0.38895 0,0 1.6366,0.0963 1.6366,0.0963 3.8036,0.006 7.7468,0.26283 11.071,-1.9254 1.0311,-0.6787 2.3673,-1.6029 2.6455,-2.8881 0.063,-0.28786 0.053,-0.66428 0.05,-0.96272 -0.015,-1.28326 -0.8394,-2.72733 -1.419,-3.85079 0,0 -1.728,-3.17694 -1.728,-3.17694 0,0 -2.2489,-3.94708 -2.2489,-3.94708 -0.7201,-1.13598 -1.5124,-2.37979 -2.8833,-2.7408 z"
       style="fill:#000000;fill-opacity:1" />
  </g>
</svg>
